<svg xmlns="http://www.w3.org/2000/svg" width="130" height="65" viewBox="0 0 130 65" fill="none"><g clip-path="url(#clip0_2842_2635)"><path d="M0 57.9598L1.41026 57.5379C2.33462 57.2668 3.6859 56.8526 5.4141 56.359C6.27949 56.1148 7.23077 55.822 8.2782 55.5432L11.6885 54.6955L15.5756 53.7378C16.9474 53.4195 18.3962 53.1484 19.9141 52.83C21.4321 52.5116 23.0026 52.1779 24.6423 51.8825L29.7436 51.0348C30.6192 50.8955 31.5038 50.7395 32.4038 50.6078L35.1359 50.2498C36.9808 50.0055 38.8679 49.7652 40.791 49.5542C44.6436 49.2205 48.6218 48.7691 52.6833 48.6144C56.7397 48.3318 60.8718 48.3318 65 48.2449C69.1282 48.3305 73.2603 48.328 77.3167 48.6093C81.3782 48.7678 85.3577 49.1923 89.2103 49.5388C91.1333 49.7549 93.0192 49.9991 94.8654 50.2421L97.6013 50.6027C98.4987 50.7305 99.3872 50.8903 100.262 51.031L105.354 51.871C106.995 52.1677 108.568 52.5193 110.082 52.8198C111.596 53.1203 113.049 53.4105 114.422 53.7276L118.304 54.6853C119.521 54.9883 120.662 55.2607 121.712 55.533C122.762 55.8054 123.714 56.1058 124.581 56.3501C126.312 56.8449 127.658 57.2604 128.587 57.5315L129.997 57.9598L128.541 57.7041C127.594 57.5277 126.201 57.286 124.438 56.9446C123.556 56.7809 122.585 56.5789 121.517 56.3986C120.449 56.2184 119.295 56.033 118.063 55.8309L114.14 55.1776L109.781 54.5498C108.259 54.3413 106.682 54.0869 105.037 53.8925L99.9526 53.2916C99.0795 53.1906 98.1974 53.0742 97.3013 52.9822L94.5756 52.7431C92.7385 52.5935 90.8667 52.3838 88.9577 52.2316L83.1397 51.848C81.1782 51.6946 79.1833 51.6562 77.1795 51.5667C73.1667 51.357 69.0833 51.366 65 51.2957C60.9192 51.3647 56.8359 51.3545 52.8205 51.5655C50.8141 51.6601 48.8179 51.6933 46.8551 51.8416L41.0359 52.2252C39.1269 52.3774 37.2564 52.5909 35.4179 52.7367L32.6923 52.9745C31.7949 53.0666 30.9128 53.1829 30.041 53.2839L24.9564 53.8849C23.3128 54.0805 21.7359 54.3337 20.2128 54.5434L15.8538 55.1712L11.9385 55.8245L8.4859 56.3871C7.41923 56.5674 6.44359 56.7707 5.56026 56.9344C3.79487 57.2771 2.40256 57.5187 1.45769 57.7016L0 57.9598Z" fill="url(#paint0_linear_2842_2635)"></path><path d="M116.814 0.624055L114.424 9.2637C114.159 10.2197 113.586 11.0624 112.794 11.6629C112.003 12.2633 111.036 12.5883 110.041 12.5881H87.7332C87.5473 12.5881 87.3627 12.6009 87.1793 12.6137L86.964 12.6316L86.7076 12.6572C86.5947 12.6699 86.4819 12.6853 86.3704 12.7019L86.2652 12.7173C81.805 13.4077 79.3011 15.1466 77.8935 19.82L73.6063 5.88175C73.596 5.8485 73.5845 5.81654 73.5742 5.78457C74.8702 4.55866 76.3287 3.51582 77.9088 2.68519C78.1076 2.58162 78.3037 2.48189 78.4999 2.38855C78.7563 2.26069 79.0127 2.14689 79.2781 2.03693C79.5011 1.94231 79.7255 1.85324 79.9511 1.7697C82.0076 1.00392 84.1855 0.614105 86.3806 0.618941L116.814 0.624055Z" fill="#015475"></path><path d="M94.5944 20.3404C93.7087 20.3273 92.8384 20.5727 92.0907 21.0463C91.3429 21.52 90.7502 22.2012 90.3855 23.0063L87.8996 28.4929L104.31 28.7486L104.244 32.9451L87.0342 32.6625C86.3791 32.6369 82.8226 32.4336 80.0829 29.4467C77.3201 26.4343 77.4547 22.8465 77.4906 22.2034L72.7342 5.58128L72.5483 5.76156L71.6778 4.86653L72.3444 4.22722L71.5393 1.42192L71.3316 0.698221L69.7252 0.676484L70.4329 1.4053L69.1508 2.65068L67.9226 1.38612L68.6701 0.662419L66.4585 0.639404L67.1803 1.37461L65.729 2.7811L64.3188 1.3337L64.9829 0.694385C64.5202 0.761527 64.067 0.882986 63.6329 1.05623L63.8996 1.33114L62.2842 2.89361L61.7111 2.30161C61.4705 2.53371 61.2504 2.78611 61.0534 3.056L60.2367 4.52641L60.4085 4.70286L59.8278 5.26418L58.9496 6.85095L60.1932 8.12957L58.7406 9.53605L57.9265 8.69472L56.4893 11.2903L56.6996 11.5077L55.988 12.1956L55.1201 13.7645L55.2367 13.6507L56.465 14.9152L55.1829 16.1606L54.3009 15.2515L52.747 18.0568L52.9778 18.2933L52.1957 19.0516L50.8983 21.3863L51.6675 20.6422L52.7303 21.7354L51.6483 22.7813L50.6778 21.7852L48.9803 24.8539L49.2368 25.1173L48.3714 25.9561L48.3252 26.0009L48.1547 26.1658L47.0919 25.0611L47.5957 24.5739L46.1291 21.7367L44.7688 23.0524L43.3585 21.6037L44.8098 20.1972L45.9265 21.348L45.0188 19.586L44.8162 19.7829L43.2457 18.1565L43.9419 17.4827L42.8124 15.2886L41.5573 16.502L43.165 18.1565L41.3701 19.8916L39.7624 18.2383L38.0637 19.8814L39.6714 21.5346L37.8765 23.2697L36.2701 21.6165L34.5714 23.2595L36.1778 24.9115L34.6791 26.3627L35.5483 27.9277L35.956 28.3471L35.8419 28.4571L37.2688 31.0271L37.7714 30.5412L38.9996 31.8058L38.1547 32.6228L41.2226 38.1516L41.7598 38.704L41.6098 38.8484L43.4919 42.2394C43.9341 43.0486 44.6428 43.6809 45.4983 44.0294C46.1791 44.3018 47.1137 44.3184 48.1342 44.3401C49.1803 44.3619 50.0137 44.3708 50.7175 44.1164C51.5932 43.7944 52.329 43.1782 52.7983 42.3736L64.5329 22.491C64.6509 24.5304 65.3162 31.7444 71.1303 37.9202C76.0021 43.0909 81.7342 44.6176 83.9137 45.0804L116.468 45.5829L116.852 20.6818L94.5944 20.3404ZM37.7829 29.8022L36.3726 28.3548L37.8252 26.9483L39.2355 28.3957L37.7829 29.8022ZM37.8329 26.534L36.2585 24.914L37.8752 23.3516L39.4496 24.9703L37.8329 26.534ZM41.1111 36.1659L40.2419 35.2709L41.1457 34.3963L42.015 35.2913L41.1111 36.1659ZM41.1688 32.9169L40.106 31.8237L41.188 30.7765L42.2508 31.8697L41.1688 32.9169ZM41.2047 29.6743L39.9765 28.4098L41.2585 27.1644L42.488 28.429L41.2047 29.6743ZM41.2752 26.4254L39.865 24.9767L41.3175 23.5702L42.7278 25.0189L41.2752 26.4254ZM41.3265 23.1559L39.7521 21.5372L41.3688 19.9734L42.9496 21.5909L41.3265 23.1559ZM44.447 42.481L44.1624 42.1882L44.4637 41.8967L44.7444 42.1946L44.447 42.481ZM44.5047 39.2461L44.0124 38.7346L44.506 38.2577L44.997 38.7692L44.5047 39.2461ZM44.5406 36.0163L43.8637 35.3195L44.5752 34.6316L45.2534 35.3284L44.5406 36.0163ZM44.6047 32.7878L43.7342 31.8927L44.638 31.0182L45.5085 31.9132L44.6047 32.7878ZM44.6611 29.5388L43.5983 28.4456L44.6816 27.3997L45.7432 28.4929L44.6611 29.5388ZM44.6983 26.2962L43.4701 25.0329L44.7521 23.7876L45.9803 25.0508L44.6983 26.2962ZM47.9496 42.3864L47.8034 42.2355L47.8996 42.1435L48.0457 42.2931L47.9496 42.3864ZM47.9496 39.1029L47.6637 38.8088L47.965 38.5173L48.2509 38.8114L47.9496 39.1029ZM48.006 35.8667L47.5149 35.3616L48.0085 34.8847L48.4996 35.3898L48.006 35.8667ZM48.0432 32.6369L47.365 31.9401L48.0778 31.2522L48.7547 31.949L48.0432 32.6369ZM48.106 29.4084L47.2367 28.5134L48.1406 27.6401L49.0111 28.5351L48.106 29.4084ZM51.4457 39.0083L51.2996 38.8574L51.3957 38.7653L51.5419 38.9149L51.4457 39.0083ZM51.4457 35.7248L51.1547 35.4307L51.456 35.1392L51.7419 35.4333L51.4457 35.7248ZM51.5021 32.4886L51.0111 31.9771L51.5034 31.5002L51.9957 32.0117L51.5021 32.4886ZM51.538 29.2601L50.8611 28.5632L51.5739 27.874L52.2508 28.5709L51.538 29.2601ZM51.6021 26.0315L50.7316 25.1365L51.6367 24.2619L52.506 25.157L51.6021 26.0315ZM54.9419 35.6302L54.7957 35.4806L54.8919 35.3872L55.038 35.5381L54.9419 35.6302ZM54.9419 32.3467L54.6573 32.0526L54.9585 31.761L55.2432 32.0551L54.9419 32.3467ZM54.9996 29.1117L54.5073 28.6003L55.0008 28.1234L55.4919 28.6348L54.9996 29.1117ZM55.0355 25.8819L54.3432 25.1889L55.0547 24.4998L55.7329 25.1966L55.0355 25.8819ZM55.0996 22.6534L54.2291 21.7584L55.1329 20.8838L56.0034 21.7789L55.0996 22.6534ZM55.156 19.4045L54.0932 18.3112L55.1752 17.264L56.238 18.3573L55.156 19.4045ZM58.438 32.252L58.2919 32.1024L58.388 32.0091L58.5342 32.16L58.438 32.252ZM58.438 28.9685L58.1521 28.6757L58.4534 28.3842L58.7393 28.677L58.438 28.9685ZM58.4944 25.7336L58.0034 25.2222L58.497 24.7453L58.988 25.2567L58.4944 25.7336ZM58.5137 22.5038L57.8355 21.807L58.5483 21.1191L59.2252 21.8147L58.5137 22.5038ZM58.5765 19.2753L57.7073 18.3803L58.6111 17.5057L59.4803 18.4007L58.5765 19.2753ZM58.6342 16.0263L57.5714 14.9331L58.6534 13.8872L59.7162 14.9791L58.6342 16.0263ZM58.6701 12.7838L57.4367 11.5205L58.7188 10.2751L59.947 11.5384L58.6701 12.7838ZM61.9137 25.5904L61.6278 25.2976L61.9291 25.0061L62.215 25.3002L61.9137 25.5904ZM61.9701 22.3555L61.4791 21.8441L61.9714 21.3671L62.4637 21.8786L61.9701 22.3555ZM62.006 19.1257L61.3291 18.4301L62.0419 17.741L62.7188 18.4378L62.006 19.1257ZM62.0701 15.8972L61.1996 15.0022L62.1047 14.1289L62.9739 15.0239L62.0701 15.8972ZM62.1265 12.6482L61.0649 11.555L62.147 10.5091L63.206 11.6023L62.1265 12.6482ZM62.1637 9.40563L60.9355 8.14235L62.2175 6.89698L63.447 8.16026L62.1637 9.40563ZM62.2342 6.15666L60.8239 4.70926L62.2765 3.30277L63.6867 4.75145L62.2342 6.15666ZM65.4098 25.4971L65.2637 25.3462L65.3585 25.2541L65.5047 25.4037L65.4098 25.4971ZM65.4098 22.2136L65.1239 21.9195L65.4265 21.628L65.7111 21.9221L65.4098 22.2136ZM65.4675 18.9774L64.9752 18.4723L65.4688 17.9954L65.9598 18.5005L65.4675 18.9774ZM65.5034 15.7489L64.8265 15.052L65.538 14.3628L66.2162 15.0597L65.5034 15.7489ZM65.5675 12.5191L64.697 11.624L65.5944 10.7495L66.4649 11.6445L65.5675 12.5191ZM65.6239 9.2701L64.5573 8.18327L65.6419 7.13097L66.7047 8.22419L65.6239 9.2701ZM65.6611 6.02751L64.4316 4.76424L65.7201 3.51886L66.9483 4.78342L65.6611 6.02751ZM68.9021 22.1202L68.756 21.9706L68.8521 21.8773L68.9983 22.0282L68.9021 22.1202ZM68.9021 18.8367L68.6162 18.5427L68.9175 18.2511L69.2034 18.5452L68.9021 18.8367ZM68.9585 15.6006L68.4675 15.0891L68.9611 14.6122L69.4521 15.1236L68.9585 15.6006ZM68.9957 12.372L68.3175 11.6752L69.0303 10.986L69.7073 11.6829L68.9957 12.372ZM69.0585 9.14352L68.1893 8.24848L69.0867 7.3739L69.956 8.26894L69.0585 9.14352ZM69.1162 5.89454L68.0534 4.80132L69.1355 3.75413L70.1983 4.84735L69.1162 5.89454ZM72.3983 18.7421L72.2521 18.5925L72.3483 18.4992L72.4944 18.6501L72.3983 18.7421ZM72.3983 15.4586L72.1124 15.1658L72.4137 14.8743L72.6996 15.1671L72.3983 15.4586ZM72.4547 12.2237L71.9637 11.7123L72.456 11.2353L72.9483 11.7468L72.4547 12.2237ZM72.4906 8.99392L71.8137 8.29707L72.5265 7.60917L73.2034 8.30474L72.4906 8.99392ZM32.3624 22.1714L32.1662 22.3619L31.7957 23.73L32.7906 24.7529L33.4444 24.1136C33.0778 23.4666 32.7137 22.8188 32.3521 22.1701L32.3624 22.1714ZM30.2573 29.3751L29.2803 28.3714L27.5829 30.0145L29.1893 31.6677L27.3944 33.4028L25.788 31.7495L24.0893 33.3926L25.6957 35.0458L23.9009 36.7809L22.2932 35.1277L20.5944 36.7707L22.206 38.4227L20.4111 40.159L18.8047 38.5058L17.106 40.1488L18.7188 41.8008L16.9239 43.5359L15.3175 41.8826L13.6188 43.5256L14.0867 44.0064L16.4816 44.0435L16.9226 43.6164L17.3509 44.0576L20.0983 44.0997L20.3675 43.844L20.6239 44.1125L23.6932 44.1598L23.7996 44.0576L23.9021 44.1637L26.2547 44.1995L26.6816 42.6204L26.0047 41.9248L27.1803 40.7881L27.447 39.8023L27.3098 39.9302L25.8983 38.4866L27.3496 37.0801L27.9983 37.7476L28.6226 35.4384L27.356 36.6633L25.7803 35.0471L27.3957 33.4834L28.7675 34.8898L29.5598 31.9656L29.2726 31.6703L29.7688 31.1895L30.2573 29.3751ZM20.3675 43.4208L18.7932 41.8021L20.4098 40.2396L21.9842 41.8583L20.3675 43.4208ZM23.8098 43.3134L22.3996 41.8647L23.8509 40.4582L25.2611 41.9056L23.8098 43.3134ZM23.8611 40.044L22.2867 38.4239L23.9034 36.8615L25.4765 38.4866L23.8611 40.044ZM39.488 8.82258L38.688 9.58975L39.8726 10.8249L40.297 10.4145L39.488 8.82258ZM39.8726 11.6867L38.488 13.0241L39.8303 14.4038L41.2137 13.0663L39.8726 11.6867ZM39.8214 14.9561L38.2739 16.4521L39.7739 17.9967L41.315 16.4943L39.8214 14.9561ZM36.3214 2.66858C36.2457 2.55862 36.1675 2.45121 36.0842 2.34764L35.7265 2.6852L36.5496 3.53292L36.6893 3.39739L36.3214 2.66858ZM36.5316 5.18874L35.5726 6.11574L36.5021 7.07215L37.4611 6.14515L36.5316 5.18874ZM36.4816 8.47224L35.3714 9.545L36.447 10.651L37.5573 9.57825L36.4816 8.47224ZM36.4303 11.7813L35.197 12.973L36.3919 14.203L37.6252 13.0113L36.4303 11.7813ZM36.3791 15.0648L34.988 16.4022L36.3291 17.7819L37.7124 16.4444L36.3791 15.0648ZM36.3278 18.3342L34.7803 19.8302L36.2816 21.3748L37.8214 19.8775L36.3278 18.3342ZM33.1342 1.93337L32.4073 2.63533L33.1111 3.36031L33.838 2.65835L33.1342 1.93337ZM33.0778 5.24244L32.2278 6.06332L33.0521 6.91104L33.9009 6.08889L33.0778 5.24244ZM33.0265 8.56686L32.0675 9.49386L32.997 10.4503L33.956 9.52327L33.0265 8.56686ZM32.9752 11.8491L31.865 12.9231L32.9419 14.0291L34.0508 12.9564L32.9752 11.8491ZM32.9239 15.1594L31.6906 16.3511L32.8867 17.5811L34.1188 16.3882L32.9239 15.1594ZM32.8726 18.4417L31.4944 19.7804L32.8355 21.16L34.2201 19.8187L32.8726 18.4417ZM32.8226 21.7111L32.347 22.1701L32.1509 22.3606L31.2829 23.2083L31.7893 23.7288L32.7842 24.7516L33.438 24.1123L34.3355 23.2493L32.8226 21.7111ZM29.6919 1.98835L29.0752 2.58419L29.6739 3.19665L30.2893 2.60081L29.6919 1.98835ZM29.6406 5.31277L28.915 6.00961L29.6162 6.73843L30.3419 6.03519L29.6406 5.31277ZM29.5893 8.62312L28.7406 9.44399L29.5637 10.2904L30.4124 9.46956L29.5893 8.62312ZM29.538 11.9475L28.5791 12.8745L29.5085 13.8309L30.4675 12.9039L29.538 11.9475ZM29.4867 15.2298L28.3778 16.3025L29.4534 17.4098L30.5624 16.337L29.4867 15.2298ZM29.4355 18.5401L28.206 19.7292L29.4009 20.9593L30.6342 19.7663L29.4355 18.5401ZM29.3855 21.8223L28.0008 23.1598L29.3432 24.5407L30.7265 23.202L29.3855 21.8223ZM29.3342 25.0918L27.7867 26.589L29.2867 28.1298L30.8355 26.6325L29.3342 25.0918ZM26.2509 2.04589L25.738 2.5356L26.2303 3.04705L26.7432 2.55734L26.2509 2.04589ZM26.1996 5.3703L25.5829 5.96614L26.1803 6.58116L26.7957 5.98148L26.1996 5.3703ZM26.147 8.69472L25.4214 9.39668L26.1252 10.1204L26.8509 9.41842L26.147 8.69472ZM26.0957 12.0038L25.247 12.8259L26.0701 13.6724L26.9201 12.8515L26.0957 12.0038ZM26.0444 15.3282L25.0855 16.2565L26.015 17.2129L26.9739 16.2846L26.0444 15.3282ZM25.9944 18.6117L24.8842 19.6845L25.9598 20.7905L27.0701 19.7177L25.9944 18.6117ZM25.9432 21.9208L24.7098 23.1137L25.9047 24.3425L27.138 23.1508L25.9432 21.9208ZM25.8919 25.2043L24.5085 26.5417L25.8496 27.9213L27.2329 26.5839L25.8919 25.2043ZM25.8406 28.4737L24.2932 29.9697L25.7944 31.5143L27.3419 30.017L25.8406 28.4737ZM22.6034 15.3768L21.7534 16.1977L22.5778 17.0454L23.4265 16.2245L22.6034 15.3768ZM22.5521 18.7012L21.5932 19.6282L22.5226 20.5846L23.4816 19.6576L22.5521 18.7012ZM22.5009 21.9847L21.3906 23.0575L22.4675 24.1635L23.5765 23.0907L22.5009 21.9847ZM22.4496 25.2938L21.2162 26.4867L22.4124 27.7155L23.6444 26.5238L22.4496 25.2938ZM22.3983 28.5773L21.015 29.9198L22.356 31.2995L23.7406 29.962L22.3983 28.5773ZM22.3483 31.8454L20.7996 33.3427L22.3009 34.8873L23.847 33.3887L22.3483 31.8454ZM19.4496 22.4808L19.0188 23.9512L19.0291 23.9615L19.988 23.0345L19.4496 22.4808ZM19.0073 25.3603L18.4483 25.9024L18.206 26.745L18.9752 27.5403L20.0842 26.4676L19.0073 25.3603ZM18.956 28.6706L17.7239 29.8623L18.9188 31.0923L20.1521 29.9007L18.956 28.6706ZM18.906 31.9528L17.5214 33.2916L18.8637 34.6712L20.247 33.3338L18.906 31.9528ZM18.8547 35.2223L17.3085 36.7195L18.8085 38.2628L20.3573 36.7668L18.8547 35.2223ZM16.3739 32.9885L16.1406 33.7813L16.6534 33.2813L16.3739 32.9885ZM15.6226 35.5458L15.0009 37.6696L15.3701 38.0531L16.7534 36.7144L15.6226 35.5458ZM15.3662 38.5991L14.4829 39.4532L14.1842 40.4761L15.3188 41.6435L16.8624 40.1488L15.3662 38.5991ZM13.315 43.4579L13.2637 43.6343L13.3791 43.5231L13.315 43.4579ZM22.6547 12.0677L22.4367 12.2749L22.2073 13.0574L22.6303 13.4921L23.356 12.7901L22.6547 12.0677Z" fill="url(#paint1_linear_2842_2635)"></path><path d="M86.9711 12.6353L86.707 12.6608L86.9711 12.6353Z" fill="url(#paint2_linear_2842_2635)"></path><path d="M86.3696 12.7056L86.2637 12.7211L86.3696 12.7056Z" fill="url(#paint3_linear_2842_2635)"></path><path d="M87.1789 12.6174L86.9648 12.6353L87.1789 12.6174Z" fill="url(#paint4_linear_2842_2635)"></path><path d="M35.143 63.7456L35.784 64.9974H34.3738L33.7327 63.7456L33.0597 62.4338L33.0302 62.3737C32.9195 62.1909 32.7634 62.0397 32.577 61.9346C32.3906 61.8296 32.1802 61.7742 31.9661 61.774H30.7109V64.9974H29.4609V57.9893H33.8981C34.1461 57.9886 34.3917 58.0369 34.6207 58.1315C34.8498 58.2261 35.0578 58.3651 35.2327 58.5404C35.5858 58.8981 35.7842 59.3796 35.7853 59.8816C35.7852 60.2438 35.6812 60.5984 35.4856 60.9036C35.29 61.2087 35.011 61.4517 34.6814 61.6039C34.5102 61.6834 34.327 61.734 34.1391 61.7535L35.143 63.7456ZM33.8981 60.5222C33.987 60.5218 34.0747 60.5013 34.1545 60.4621C34.268 60.4127 34.3647 60.3316 34.4329 60.2286C34.5012 60.1256 34.5381 60.0051 34.5391 59.8816C34.5385 59.7091 34.4699 59.5438 34.3481 59.4213C34.2887 59.3629 34.2182 59.3168 34.1407 59.2859C34.0632 59.2549 33.9803 59.2397 33.8968 59.241H30.7161V60.5324L33.8981 60.5222Z" fill="#015475"></path><path d="M40.2369 60.792L43.2779 64.9872H41.733L39.3035 61.6436L37.5266 63.2547V64.9872H36.2715V57.9791H37.5266V61.5592L38.5612 60.6181L39.4946 59.7679L41.451 57.9778H43.3087L40.2369 60.792Z" fill="#015475"></path><path d="M56.9861 57.9893L56.2297 59.241H54.1028V64.9948H52.8489V59.241H49.9707V57.9893H56.9861Z" fill="#015475"></path><path d="M57.6133 64.9871V57.979H58.8671V64.9871H57.6133Z" fill="#015475"></path><path d="M66.5081 57.9892V64.9974L65.2556 64.0358L60.7389 60.5618V64.9974H59.4863V58.0097L60.7402 58.9699L65.2556 62.4439V57.979L66.5081 57.9892Z" fill="#015475"></path><path d="M87.1269 59.2283V60.53H91.132V61.7715H87.1269V63.7431H91.6346V65L85.873 64.9949V57.9766H91.6346L90.8961 59.2283H87.1269Z" fill="#015475"></path><path d="M44.9758 59.2232V60.5248H48.9797V61.7664H44.9758V63.738H49.4822V64.9949L43.7207 64.9898V57.9714H49.4822L48.7438 59.2232H44.9758Z" fill="#015475"></path><path d="M79.2115 61.4837C79.2128 62.0807 79.4513 62.6528 79.8747 63.0749C80.2981 63.4969 80.8719 63.7344 81.4704 63.7354H83.7281V62.3967H81.4704L82.1563 61.1449H84.9769V64.9897H81.464C80.997 64.9986 80.5329 64.9146 80.0988 64.7425C79.6647 64.5704 79.2694 64.3137 78.9359 63.9874C78.6025 63.6611 78.3376 63.2719 78.1568 62.8423C77.9759 62.4127 77.8828 61.9515 77.8828 61.4857C77.8828 61.0198 77.9759 60.5586 78.1568 60.129C78.3376 59.6995 78.6025 59.3102 78.9359 58.9839C79.2694 58.6576 79.6647 58.401 80.0988 58.2289C80.5329 58.0568 80.997 57.9727 81.464 57.9816H84.9769L84.2204 59.2385H81.464C80.8677 59.2412 80.2965 59.4785 79.8747 59.899C79.4528 60.3194 79.2145 60.889 79.2115 61.4837Z" fill="#015475"></path><path d="M68.44 61.4838C68.4413 62.0808 68.6798 62.6529 69.1032 63.075C69.5266 63.497 70.1004 63.7345 70.6989 63.7355H72.9579V62.3968H70.6989L71.3848 61.145H74.2118V64.9898H70.6989C69.7787 64.9723 68.9022 64.5954 68.2576 63.9402C67.613 63.2849 67.252 62.4037 67.252 61.4858C67.252 60.5678 67.613 59.6866 68.2576 59.0313C68.9022 58.3761 69.7787 57.9992 70.6989 57.9817H74.2118L73.4553 59.2386H70.6989C70.1015 59.2396 69.5286 59.4762 69.1054 59.8968C68.6822 60.3175 68.443 60.888 68.44 61.4838Z" fill="#015475"></path><path d="M99.2717 57.9892V64.9974L98.0166 64.0358L93.4999 60.5618V64.9974H92.2461V58.0097L93.4999 58.9699L98.0166 62.4439V57.979L99.2717 57.9892Z" fill="#015475"></path><path d="M100.277 64.9871V57.979H101.539V64.9871H100.277Z" fill="#015475"></path><path d="M109.562 57.979V61.4837C109.545 62.4014 109.167 63.2757 108.51 63.9185C107.853 64.5614 106.969 64.9215 106.049 64.9215C105.128 64.9215 104.245 64.5614 103.588 63.9185C102.931 63.2757 102.553 62.4014 102.535 61.4837V57.979H103.79V61.4837C103.804 62.0718 104.048 62.631 104.47 63.042C104.892 63.4529 105.459 63.683 106.049 63.683C106.638 63.683 107.205 63.4529 107.627 63.042C108.049 62.631 108.293 62.0718 108.307 61.4837V57.979H109.562Z" fill="#015475"></path><path d="M115.578 59.9212V59.8816C115.578 59.712 115.511 59.5494 115.39 59.4295C115.27 59.3096 115.107 59.2423 114.937 59.2423H112.086C111.916 59.2423 111.753 59.3096 111.632 59.4295C111.512 59.5494 111.445 59.712 111.445 59.8816V59.9212C111.445 60.0908 111.512 60.2534 111.632 60.3733C111.753 60.4932 111.916 60.5605 112.086 60.5605H114.615C114.923 60.5601 115.228 60.6241 115.51 60.7483C115.792 60.8725 116.044 61.0542 116.251 61.2817C116.282 61.3111 116.301 61.3418 116.332 61.3712C116.598 61.6954 116.767 62.0883 116.818 62.5043C116.869 62.9203 116.801 63.3422 116.621 63.721C116.441 64.0998 116.157 64.4198 115.802 64.644C115.447 64.8681 115.035 64.9871 114.615 64.9871H112.417C111.828 64.9868 111.264 64.7536 110.849 64.3389C110.433 63.9241 110.199 63.3617 110.199 62.7751H111.454C111.454 63.0298 111.555 63.274 111.736 63.4541C111.916 63.6342 112.161 63.7354 112.417 63.7354H114.615C114.747 63.745 114.88 63.7273 115.005 63.6835C115.13 63.6397 115.245 63.5706 115.342 63.4806C115.439 63.3906 115.516 63.2817 115.569 63.1605C115.622 63.0393 115.65 62.9086 115.65 62.7764C115.65 62.6442 115.622 62.5135 115.569 62.3923C115.516 62.2711 115.439 62.1621 115.342 62.0721C115.245 61.9822 115.13 61.9131 115.005 61.8693C114.88 61.8254 114.747 61.8078 114.615 61.8174H112.086C111.594 61.8182 111.121 61.6263 110.769 61.283C110.678 61.1915 110.598 61.0908 110.528 60.9825C110.31 60.6677 110.195 60.2936 110.197 59.911V59.8714C110.197 59.371 110.395 58.8909 110.749 58.5361C111.102 58.1814 111.583 57.981 112.084 57.979H114.936C115.439 57.9804 115.92 58.1802 116.276 58.5348C116.632 58.8893 116.832 59.3699 116.833 59.8714V59.911L115.578 59.9212Z" fill="#015475"></path><path d="M21.05 64.9873L20.1128 60.2232L18.3769 64.9029H17.1872L15.4513 60.2232L14.4667 64.9873H13.168L14.6564 57.804L15.9064 57.8027L17.7821 62.861L19.6577 57.8027L20.9077 57.804L22.3936 64.9873H21.05Z" fill="#015475"></path><path d="M24.7432 62.9541L24.124 64.9884H22.7676L25.0753 57.8115H26.7522L29.0907 64.9884H27.6804L27.0291 62.9541H24.7432ZM26.8035 61.9645L26.2381 60.1962C26.0996 59.7601 25.9817 59.2704 25.8753 58.8549H25.8535C25.7471 59.2704 25.6407 59.7704 25.5125 60.1962L24.9573 61.9645H26.8035Z" fill="#015475"></path><path d="M107.438 60.4757L106.049 59.0906L104.66 60.4757L106.049 61.8608L107.438 60.4757Z" fill="#0487AF"></path><path d="M119.133 0.698242V1.39765H120.442V5.27954H121.283V1.39765H122.605V0.698242H119.133Z" fill="black"></path><path d="M127.637 0.698242H126.547L125.906 2.53306C125.729 3.07008 125.573 3.63396 125.45 4.13006H125.429C125.314 3.61861 125.173 3.07648 125.008 2.53946L124.408 0.698242H123.303L122.996 5.27954H123.781L123.882 3.43705C123.917 2.8118 123.944 2.08427 123.964 1.48587H123.978C124.1 2.05742 124.264 2.68266 124.441 3.26699L125.055 5.22456H125.696L126.364 3.24014C126.568 2.6622 126.759 2.04335 126.909 1.48587H126.929C126.929 2.10473 126.956 2.8182 126.985 3.4102L127.073 5.27954H127.891L127.637 0.698242Z" fill="black"></path></g><defs><linearGradient id="paint0_linear_2842_2635" x1="-0.380769" y1="53.1024" x2="130.381" y2="53.1024" gradientUnits="userSpaceOnUse"><stop stop-color="#AED3E1"></stop><stop offset="0.23" stop-color="#59BDF8"></stop><stop offset="0.69" stop-color="#0582B2"></stop><stop offset="0.7" stop-color="#057DAC"></stop><stop offset="0.77" stop-color="#036B94"></stop><stop offset="0.84" stop-color="#025E82"></stop><stop offset="0.91" stop-color="#015678"></stop><stop offset="1" stop-color="#015475"></stop></linearGradient><linearGradient id="paint1_linear_2842_2635" x1="28.5013" y1="-0.537068" x2="100.076" y2="63.8114" gradientUnits="userSpaceOnUse"><stop offset="0.18" stop-color="#59BDF8"></stop><stop offset="0.59" stop-color="#0582B2"></stop><stop offset="0.61" stop-color="#057DAC"></stop><stop offset="0.69" stop-color="#036B94"></stop><stop offset="0.78" stop-color="#025E82"></stop><stop offset="0.88" stop-color="#015678"></stop><stop offset="1" stop-color="#015475"></stop></linearGradient><linearGradient id="paint2_linear_2842_2635" x1="13.484" y1="12.648" x2="116.815" y2="12.648" gradientUnits="userSpaceOnUse"><stop stop-color="#AED3E1"></stop><stop offset="0.23" stop-color="#59BDF8"></stop><stop offset="0.69" stop-color="#0582B2"></stop><stop offset="0.7" stop-color="#057DAC"></stop><stop offset="0.77" stop-color="#036B94"></stop><stop offset="0.84" stop-color="#025E82"></stop><stop offset="0.91" stop-color="#015678"></stop><stop offset="1" stop-color="#015475"></stop></linearGradient><linearGradient id="paint3_linear_2842_2635" x1="12.9224" y1="12.7134" x2="117.049" y2="12.7134" gradientUnits="userSpaceOnUse"><stop stop-color="#AED3E1"></stop><stop offset="0.23" stop-color="#59BDF8"></stop><stop offset="0.69" stop-color="#0582B2"></stop><stop offset="0.7" stop-color="#057DAC"></stop><stop offset="0.77" stop-color="#036B94"></stop><stop offset="0.84" stop-color="#025E82"></stop><stop offset="0.91" stop-color="#015678"></stop><stop offset="1" stop-color="#015475"></stop></linearGradient><linearGradient id="paint4_linear_2842_2635" x1="73.5675" y1="12.6264" x2="116.93" y2="12.6264" gradientUnits="userSpaceOnUse"><stop stop-color="#015475"></stop><stop offset="0.25" stop-color="#015678"></stop><stop offset="0.45" stop-color="#025E82"></stop><stop offset="0.64" stop-color="#036B94"></stop><stop offset="0.82" stop-color="#057DAC"></stop><stop offset="0.86" stop-color="#0582B2"></stop></linearGradient><clipPath id="clip0_2842_2635"><rect width="130" height="65" fill="white"></rect></clipPath></defs></svg>